<?xml version="1.0" encoding="UTF-8"?>
<svg id="Layer_2" data-name="Layer 2" xmlns="http://www.w3.org/2000/svg" viewBox="0 0 491.3 281.81">
  <defs>
    <style>
      .cls-1 {
        fill: #0124d4;
      }
    </style>
  </defs>
  <g id="Layer_1-2" data-name="Layer 1">
    <g>
      <path class="cls-1" d="M245.65,0c-44.74,0-81,36.26-81,81s36.26,81,81,81,81-36.26,81-81S290.38,0,245.65,0ZM208.56,134.99h-13.08v-31.81l13.08-.38v32.19ZM230.32,134.99h-13.08v-32.62c4.58-.34,8.94-.85,13.08-1.53v34.15ZM252.08,134.99h-13.08v-35.86c4.66-1.07,9.01-2.36,13.08-3.81v39.67ZM273.83,134.99h-13.08v-43.21c4.83-2.22,9.17-4.68,13.08-7.29v50.5ZM295.59,134.99h-13.08v-57.1c4.49-3.88,10.01-7.89,13.08-11.8v68.9ZM292.58,47.67c-7.67,15.08-28.88,42.53-83.39,44.11,4.49-1.47,57.27-5.99,73.84-47.62-3.66-1.01-4.54-1.3-6.43-1.93,5.31-4.4,12.48-10.25,17.78-14.64,1.57,6.7,3.49,15.32,5.06,22.03-1.06-.24-5.68-1.55-6.86-1.95Z"/>
      <g>
        <polygon class="cls-1" points="33.56 192.76 0 192.76 0 199.9 12.53 199.9 12.53 234.99 21.06 234.99 21.06 199.9 33.56 199.9 33.56 192.76"/>
        <path class="cls-1" d="M57.71,224.94l.09-9.45c0-3.51-.36-5.93-1.08-7.25-.72-1.32-1.96-2.4-3.73-3.25-1.77-.85-4.46-1.28-8.07-1.28-3.98,0-6.97.71-8.99,2.13-2.02,1.42-3.44,3.61-4.26,6.57l7.35,1.33c.5-1.42,1.15-2.42,1.96-2.98s1.93-.85,3.37-.85c2.13,0,3.58.33,4.35.99.77.66,1.15,1.77,1.15,3.33v.81c-1.46.62-4.08,1.28-7.86,1.99-2.8.54-4.95,1.17-6.44,1.89-1.49.72-2.65,1.76-3.47,3.11-.83,1.35-1.24,2.9-1.24,4.62,0,2.61.91,4.77,2.72,6.48,1.82,1.71,4.3,2.56,7.45,2.56,1.79,0,3.47-.34,5.04-1.01,1.57-.67,3.05-1.68,4.44-3.03.06.15.15.47.29.95.31,1.06.57,1.85.78,2.39h8.01c-.71-1.46-1.2-2.83-1.46-4.11-.26-1.28-.39-3.26-.39-5.95ZM49.84,221.91c0,1.94-.11,3.25-.32,3.95-.31,1.06-.95,1.95-1.93,2.68-1.33.96-2.72,1.44-4.18,1.44-1.31,0-2.38-.41-3.23-1.24-.85-.83-1.27-1.8-1.27-2.94s.53-2.1,1.58-2.85c.69-.46,2.16-.93,4.41-1.41,2.25-.48,3.89-.89,4.93-1.24v1.61Z"/>
        <path class="cls-1" d="M75.7,228.97c-.54,0-.99-.13-1.37-.4-.38-.27-.62-.61-.72-1.02-.11-.41-.16-1.87-.16-4.36v-12.33h5.53v-6.45h-5.53v-10.8l-8.12,4.72v6.08h-3.72v6.45h3.72v13.34c0,2.86.09,4.76.26,5.7.21,1.33.59,2.38,1.14,3.16.55.78,1.41,1.41,2.58,1.9,1.17.49,2.49.73,3.95.73,2.38,0,4.51-.4,6.4-1.21l-.69-6.28c-1.42.52-2.51.78-3.26.78Z"/>
        <polygon class="cls-1" points="113.1 224.45 108 204.4 100.19 204.4 94.92 224.45 89.19 204.4 81.32 204.4 91 234.99 98.86 234.99 104.05 215.32 109.32 234.99 117.1 234.99 126.92 204.4 118.94 204.4 113.1 224.45"/>
        <path class="cls-1" d="M152.57,208.21c-2.63-3.01-6.22-4.51-10.77-4.51-4.05,0-7.4,1.44-10.05,4.31-2.65,2.87-3.98,6.84-3.98,11.91,0,4.24,1.01,7.76,3.02,10.54,2.55,3.48,6.49,5.21,11.81,5.21,3.36,0,6.16-.77,8.4-2.32,2.24-1.55,3.88-3.8,4.91-6.75l-8.07-1.35c-.44,1.54-1.09,2.65-1.96,3.34s-1.93,1.04-3.2,1.04c-1.86,0-3.42-.67-4.67-2-1.25-1.33-1.9-3.2-1.96-5.6h20.28c.12-6.2-1.14-10.81-3.77-13.81ZM136.2,217.07c-.02-2.21.55-3.96,1.7-5.24,1.15-1.29,2.61-1.93,4.38-1.93,1.65,0,3.05.61,4.21,1.83s1.76,3,1.81,5.34h-12.1Z"/>
        <path class="cls-1" d="M184.91,208.21c-2.63-3.01-6.22-4.51-10.77-4.51-4.05,0-7.4,1.44-10.05,4.31-2.65,2.87-3.98,6.84-3.98,11.91,0,4.24,1.01,7.76,3.02,10.54,2.55,3.48,6.49,5.21,11.81,5.21,3.36,0,6.16-.77,8.4-2.32,2.24-1.55,3.88-3.8,4.91-6.75l-8.07-1.35c-.44,1.54-1.09,2.65-1.96,3.34s-1.93,1.04-3.2,1.04c-1.86,0-3.42-.67-4.67-2-1.25-1.33-1.9-3.2-1.96-5.6h20.28c.12-6.2-1.14-10.81-3.77-13.81ZM168.55,217.07c-.02-2.21.55-3.96,1.7-5.24,1.15-1.29,2.61-1.93,4.38-1.93,1.65,0,3.05.61,4.21,1.83s1.76,3,1.81,5.34h-12.1Z"/>
        <path class="cls-1" d="M205.15,204.69c-1.03.65-2.19,2.01-3.47,4.06v-4.35h-7.52v30.59h8.1v-9.45c0-5.2.23-8.62.68-10.26.45-1.63,1.07-2.76,1.86-3.38.79-.62,1.75-.94,2.88-.94s2.44.44,3.8,1.33l2.51-7.06c-1.71-1.02-3.49-1.53-5.33-1.53-1.31,0-2.47.33-3.5.98Z"/>
        <path class="cls-1" d="M257.42,226.26c-1.63,1.44-3.58,2.16-5.85,2.16-3.07,0-5.57-1.13-7.49-3.4-1.92-2.27-2.88-6.07-2.88-11.41,0-5.03.97-8.67,2.92-10.92,1.95-2.25,4.49-3.37,7.62-3.37,2.27,0,4.19.63,5.78,1.9,1.58,1.27,2.63,3,3.13,5.19l8.44-2.02c-.96-3.38-2.4-5.97-4.32-7.78-3.23-3.05-7.42-4.58-12.59-4.58-5.92,0-10.69,1.94-14.32,5.83-3.63,3.89-5.44,9.35-5.44,16.38,0,6.65,1.81,11.88,5.42,15.71,3.61,3.83,8.22,5.75,13.83,5.75,4.53,0,8.27-1.12,11.22-3.36,2.95-2.24,5.06-5.66,6.32-10.27l-8.27-2.62c-.71,3.09-1.88,5.36-3.51,6.8Z"/>
        <path class="cls-1" d="M289.08,203.71c-3,0-5.71.66-8.14,1.99-2.43,1.33-4.31,3.25-5.63,5.76-1.33,2.52-1.99,5.12-1.99,7.81,0,3.51.66,6.5,1.99,8.95,1.33,2.45,3.26,4.31,5.81,5.57,2.54,1.27,5.22,1.9,8.02,1.9,4.53,0,8.29-1.52,11.28-4.57,2.99-3.04,4.48-6.88,4.48-11.51s-1.48-8.39-4.44-11.39c-2.96-3.01-6.75-4.51-11.38-4.51ZM294.43,226.67c-1.43,1.61-3.2,2.42-5.32,2.42s-3.89-.81-5.33-2.42-2.16-3.94-2.16-6.97.72-5.36,2.16-6.97,3.22-2.42,5.33-2.42,3.88.81,5.32,2.42c1.43,1.61,2.15,3.92,2.15,6.91s-.72,5.42-2.15,7.03Z"/>
        <path class="cls-1" d="M350.73,205.07c-1.56-.91-3.46-1.37-5.7-1.37-1.77,0-3.43.4-4.98,1.21s-3.01,2.03-4.35,3.66c-.92-1.63-2.1-2.85-3.54-3.66s-3.14-1.21-5.1-1.21c-3.69,0-6.87,1.62-9.54,4.87v-4.18h-7.46v30.59h8.1v-14.87c0-2.94.22-5.04.65-6.31.43-1.27,1.15-2.24,2.15-2.91,1-.67,2.12-1.01,3.37-1.01,1.04,0,1.86.21,2.46.63.6.42,1.05,1.07,1.34,1.93s.43,2.79.43,5.76v16.77h8.1v-14.69c0-2.88.22-4.99.66-6.32.44-1.33,1.16-2.35,2.16-3.04,1-.69,2.06-1.04,3.2-1.04,1.56,0,2.71.58,3.46,1.73.56.88.84,2.84.84,5.88v17.49h8.09v-19.56c0-2.92-.28-5.03-.83-6.34-.77-1.77-1.93-3.11-3.49-4.02Z"/>
        <path class="cls-1" d="M379.14,203.71c-2.04,0-3.89.48-5.56,1.44-1.67.96-3,2.21-3.97,3.75v-4.49h-7.55v42.23h8.1v-15.41c1.52,1.63,2.96,2.78,4.34,3.46,1.37.67,2.9,1.01,4.59,1.01,3.55,0,6.58-1.42,9.08-4.25,2.5-2.83,3.74-6.8,3.74-11.91s-1.24-8.85-3.72-11.64c-2.48-2.78-5.49-4.18-9.04-4.18ZM381.79,227c-1.25,1.51-2.81,2.26-4.7,2.26s-3.62-.82-4.98-2.46c-1.37-1.64-2.04-4.18-2.04-7.62,0-3,.65-5.26,1.96-6.78,1.3-1.53,2.95-2.29,4.93-2.29s3.49.78,4.78,2.33c1.29,1.55,1.93,3.94,1.93,7.14,0,3.44-.62,5.91-1.87,7.42Z"/>
        <path class="cls-1" d="M422.34,224.94l.09-9.45c0-3.51-.36-5.93-1.08-7.25-.72-1.32-1.96-2.4-3.73-3.25-1.77-.85-4.46-1.28-8.07-1.28-3.98,0-6.97.71-8.99,2.13-2.02,1.42-3.44,3.61-4.26,6.57l7.35,1.33c.5-1.42,1.15-2.42,1.96-2.98s1.93-.85,3.37-.85c2.13,0,3.58.33,4.35.99.77.66,1.15,1.77,1.15,3.33v.81c-1.46.62-4.08,1.28-7.87,1.99-2.8.54-4.95,1.17-6.44,1.89-1.49.72-2.65,1.76-3.47,3.11-.83,1.35-1.24,2.9-1.24,4.62,0,2.61.91,4.77,2.72,6.48,1.82,1.71,4.3,2.56,7.45,2.56,1.79,0,3.47-.34,5.04-1.01,1.57-.67,3.05-1.68,4.44-3.03.06.15.15.47.29.95.31,1.06.57,1.85.78,2.39h8.01c-.71-1.46-1.2-2.83-1.46-4.11-.26-1.28-.39-3.26-.39-5.95ZM414.48,221.91c0,1.94-.11,3.25-.32,3.95-.31,1.06-.95,1.95-1.93,2.68-1.32.96-2.72,1.44-4.18,1.44-1.31,0-2.38-.41-3.23-1.24-.85-.83-1.27-1.8-1.27-2.94s.53-2.1,1.58-2.85c.69-.46,2.16-.93,4.41-1.41,2.25-.48,3.89-.89,4.93-1.24v1.61Z"/>
        <path class="cls-1" d="M455.4,207.13c-.76-1-1.88-1.82-3.36-2.46-1.48-.64-3.11-.96-4.9-.96-4.05,0-7.41,1.73-10.08,5.19v-4.49h-7.52v30.59h8.09v-13.86c0-3.42.21-5.76.62-7.03s1.18-2.29,2.29-3.05c1.11-.77,2.37-1.15,3.77-1.15,1.09,0,2.03.27,2.81.81.78.54,1.34,1.29,1.69,2.26.35.97.52,3.11.52,6.41v15.61h8.1v-19.01c0-2.36-.15-4.18-.45-5.45s-.83-2.4-1.58-3.4Z"/>
        <path class="cls-1" d="M482.91,204.4l-7.14,21.72-7.32-21.72h-8.61l11.64,30.68c-.48,1.71-1.17,3.12-2.07,4.22-.9,1.1-2.29,1.66-4.18,1.66-1.02,0-2.16-.12-3.43-.37l.72,6.34c1.5.33,3.03.49,4.58.49s2.91-.16,4.13-.49c1.22-.33,2.25-.78,3.08-1.37.83-.59,1.57-1.35,2.22-2.29.64-.94,1.32-2.3,2.03-4.09l1.93-5.33,10.8-29.44h-8.38Z"/>
      </g>
      <g>
        <polygon class="cls-1" points="52.38 281.16 56.14 281.16 56.14 273.25 63.91 273.25 63.91 270.1 56.14 270.1 56.14 265.7 65.14 265.7 65.14 262.55 52.38 262.55 52.38 281.16"/>
        <path class="cls-1" d="M76.48,262.23c-1.52,0-2.85.25-4.01.74-.87.36-1.67.92-2.41,1.68s-1.31,1.6-1.73,2.55c-.57,1.29-.85,2.88-.85,4.77,0,2.96.82,5.29,2.45,6.98,1.63,1.69,3.83,2.53,6.6,2.53s4.92-.85,6.55-2.55c1.63-1.7,2.45-4.05,2.45-7.05s-.82-5.4-2.47-7.1-3.84-2.55-6.58-2.55ZM80.2,276.64c-.96,1.08-2.19,1.62-3.69,1.62s-2.73-.54-3.71-1.63c-.97-1.09-1.46-2.69-1.46-4.79s.47-3.74,1.42-4.8c.95-1.06,2.2-1.59,3.75-1.59s2.79.52,3.73,1.57,1.4,2.64,1.4,4.77-.48,3.78-1.44,4.86Z"/>
        <path class="cls-1" d="M100.8,274.51c-.53-.57-1.2-1.09-2.01-1.56,1.63-.24,2.86-.81,3.68-1.72.82-.91,1.23-2.06,1.23-3.46,0-1.1-.27-2.08-.81-2.93s-1.26-1.45-2.16-1.78c-.9-.33-2.35-.5-4.34-.5h-7.91v18.61h3.76v-7.77h.76c.86,0,1.49.07,1.89.21.4.14.77.4,1.13.78.36.38,1.02,1.29,1.98,2.74l2.72,4.05h4.49l-2.27-3.63c-.9-1.45-1.61-2.45-2.14-3.02ZM95.01,270.42h-2.78v-4.72h2.93c1.52,0,2.44.02,2.74.06.61.1,1.08.34,1.42.73.33.39.5.89.5,1.52,0,.56-.13,1.02-.38,1.4s-.6.63-1.05.79-1.57.23-3.38.23Z"/>
        <path class="cls-1" d="M125.84,270.88c-.88-.46-2.23-.91-4.06-1.34s-2.98-.85-3.45-1.24c-.37-.31-.56-.69-.56-1.13,0-.48.2-.87.6-1.16.62-.45,1.47-.67,2.56-.67s1.85.21,2.38.63c.53.42.87,1.11,1.03,2.06l3.76-.17c-.06-1.71-.68-3.08-1.86-4.1s-2.94-1.54-5.27-1.54c-1.43,0-2.65.22-3.66.65s-1.79,1.06-2.32,1.88c-.54.83-.81,1.71-.81,2.66,0,1.47.57,2.72,1.71,3.75.81.73,2.23,1.34,4.24,1.84,1.57.39,2.57.66,3.01.81.64.23,1.09.5,1.35.81.26.31.39.68.39,1.12,0,.69-.31,1.28-.92,1.8-.61.51-1.53.77-2.74.77-1.14,0-2.05-.29-2.72-.86s-1.12-1.48-1.34-2.7l-3.66.36c.25,2.08,1,3.67,2.26,4.75,1.26,1.09,3.07,1.63,5.42,1.63,1.62,0,2.97-.23,4.05-.68,1.08-.45,1.92-1.14,2.51-2.08s.89-1.93.89-3c0-1.18-.25-2.17-.74-2.96-.5-.8-1.18-1.43-2.06-1.89Z"/>
        <polygon class="cls-1" points="135.56 272.96 144.91 272.96 144.91 269.82 135.56 269.82 135.56 265.7 145.6 265.7 145.6 262.55 131.8 262.55 131.8 281.16 145.96 281.16 145.96 278.02 135.56 278.02 135.56 272.96"/>
        <path class="cls-1" d="M159.5,277.31c-.72.63-1.58.95-2.58.95-1.35,0-2.45-.5-3.3-1.5s-1.27-2.67-1.27-5.03c0-2.22.43-3.82,1.29-4.81s1.98-1.49,3.36-1.49c1,0,1.85.28,2.55.84s1.16,1.32,1.38,2.29l3.72-.89c-.42-1.49-1.06-2.63-1.9-3.43-1.42-1.35-3.27-2.02-5.55-2.02-2.61,0-4.71.86-6.31,2.57-1.6,1.71-2.4,4.12-2.4,7.22,0,2.93.8,5.24,2.39,6.93,1.59,1.69,3.62,2.53,6.09,2.53,2,0,3.65-.49,4.94-1.48,1.3-.99,2.23-2.49,2.79-4.53l-3.64-1.16c-.31,1.36-.83,2.36-1.55,3Z"/>
        <path class="cls-1" d="M178.98,272.84c0,1.47-.06,2.53-.17,3.16s-.44,1.17-.98,1.61c-.54.44-1.35.65-2.41.65s-1.88-.23-2.48-.69c-.6-.46-.99-1.07-1.15-1.83-.09-.47-.14-1.51-.14-3.11v-10.08h-3.76v9.93c0,2.08.12,3.66.37,4.72.17.72.52,1.41,1.05,2.06.53.66,1.26,1.19,2.18,1.6.92.41,2.27.62,4.04.62,1.47,0,2.67-.19,3.58-.57.91-.38,1.64-.88,2.19-1.52s.92-1.41,1.12-2.34.3-2.5.3-4.74v-9.78h-3.76v10.3Z"/>
        <path class="cls-1" d="M199.03,274.51c-.53-.57-1.2-1.09-2.01-1.56,1.63-.24,2.86-.81,3.68-1.72.82-.91,1.23-2.06,1.23-3.46,0-1.1-.27-2.08-.81-2.93s-1.26-1.45-2.16-1.78c-.9-.33-2.35-.5-4.34-.5h-7.91v18.61h3.76v-7.77h.76c.86,0,1.49.07,1.89.21.4.14.77.4,1.13.78.36.38,1.02,1.29,1.98,2.74l2.72,4.05h4.49l-2.27-3.63c-.9-1.45-1.61-2.45-2.14-3.02ZM193.25,270.42h-2.78v-4.72h2.93c1.52,0,2.44.02,2.74.06.61.1,1.08.34,1.42.73.33.39.5.89.5,1.52,0,.56-.13,1.02-.38,1.4s-.6.63-1.05.79-1.57.23-3.38.23Z"/>
        <rect class="cls-1" x="205.36" y="262.55" width="3.76" height="18.61"/>
        <polygon class="cls-1" points="211.37 265.7 216.89 265.7 216.89 281.16 220.65 281.16 220.65 265.7 226.16 265.7 226.16 262.55 211.37 262.55 211.37 265.7"/>
        <rect class="cls-1" x="228.47" y="262.55" width="3.76" height="18.61"/>
        <polygon class="cls-1" points="239.56 272.96 248.91 272.96 248.91 269.82 239.56 269.82 239.56 265.7 249.6 265.7 249.6 262.55 235.8 262.55 235.8 281.16 249.96 281.16 249.96 278.02 239.56 278.02 239.56 272.96"/>
        <path class="cls-1" d="M264.53,270.88c-.88-.46-2.23-.91-4.06-1.34s-2.98-.85-3.45-1.24c-.37-.31-.56-.69-.56-1.13,0-.48.2-.87.6-1.16.62-.45,1.47-.67,2.56-.67s1.85.21,2.38.63c.53.42.87,1.11,1.03,2.06l3.76-.17c-.06-1.71-.68-3.08-1.86-4.1s-2.94-1.54-5.27-1.54c-1.43,0-2.65.22-3.66.65s-1.79,1.06-2.32,1.88c-.54.83-.81,1.71-.81,2.66,0,1.47.57,2.72,1.71,3.75.81.73,2.23,1.34,4.24,1.84,1.57.39,2.57.66,3.01.81.64.23,1.09.5,1.35.81.26.31.39.68.39,1.12,0,.69-.31,1.28-.92,1.8-.61.51-1.53.77-2.74.77-1.14,0-2.05-.29-2.72-.86s-1.12-1.48-1.34-2.7l-3.66.36c.25,2.08,1,3.67,2.26,4.75,1.26,1.09,3.07,1.63,5.42,1.63,1.62,0,2.97-.23,4.05-.68,1.08-.45,1.92-1.14,2.51-2.08s.89-1.93.89-3c0-1.18-.25-2.17-.74-2.96-.5-.8-1.18-1.43-2.06-1.89Z"/>
        <path class="cls-1" d="M289.78,271.27c.8-.36,1.44-.91,1.91-1.64s.7-1.53.7-2.4c0-.8-.19-1.53-.57-2.18-.38-.65-.86-1.17-1.43-1.56s-1.22-.65-1.94-.77c-.72-.12-1.82-.18-3.29-.18h-7.44v18.61h6.33c2.4-.02,3.91-.06,4.53-.13,1-.11,1.84-.4,2.52-.88.68-.48,1.22-1.12,1.61-1.92.39-.8.59-1.62.59-2.47,0-1.08-.3-2.01-.91-2.81s-1.48-1.36-2.62-1.69ZM281.48,265.64h2.16c1.77,0,2.84.02,3.21.06.63.08,1.1.29,1.42.65.32.36.48.83.48,1.4s-.18,1.08-.55,1.45c-.37.37-.87.59-1.52.67-.36.04-1.27.06-2.73.06h-2.46v-4.3ZM288.9,277.17c-.35.39-.81.64-1.36.74-.36.08-1.22.11-2.58.11h-3.48v-4.98h3.03c1.71,0,2.82.09,3.33.27s.9.46,1.17.85.41.86.41,1.42c0,.66-.18,1.19-.53,1.58Z"/>
        <path class="cls-1" d="M308.82,274.51c-.53-.57-1.2-1.09-2.01-1.56,1.63-.24,2.86-.81,3.68-1.72.82-.91,1.23-2.06,1.23-3.46,0-1.1-.27-2.08-.81-2.93s-1.26-1.45-2.16-1.78c-.9-.33-2.35-.5-4.34-.5h-7.91v18.61h3.76v-7.77h.76c.86,0,1.49.07,1.89.21.4.14.77.4,1.13.78.36.38,1.02,1.29,1.98,2.74l2.72,4.05h4.49l-2.27-3.63c-.9-1.45-1.61-2.45-2.14-3.02ZM303.04,270.42h-2.78v-4.72h2.93c1.52,0,2.44.02,2.74.06.61.1,1.08.34,1.42.73.33.39.5.89.5,1.52,0,.56-.13,1.02-.38,1.4s-.6.63-1.05.79-1.57.23-3.38.23Z"/>
        <path class="cls-1" d="M323.5,262.23c-1.52,0-2.85.25-4.01.74-.87.36-1.67.92-2.41,1.68s-1.31,1.6-1.73,2.55c-.57,1.29-.85,2.88-.85,4.77,0,2.96.82,5.29,2.45,6.98,1.63,1.69,3.83,2.53,6.6,2.53s4.92-.85,6.55-2.55c1.63-1.7,2.45-4.05,2.45-7.05s-.82-5.4-2.47-7.1-3.84-2.55-6.58-2.55ZM327.23,276.64c-.96,1.08-2.19,1.62-3.69,1.62s-2.73-.54-3.71-1.63c-.97-1.09-1.46-2.69-1.46-4.79s.47-3.74,1.42-4.8c.95-1.06,2.2-1.59,3.75-1.59s2.79.52,3.73,1.57,1.4,2.64,1.4,4.77-.48,3.78-1.44,4.86Z"/>
        <polygon class="cls-1" points="351.94 262.55 346.89 262.55 339.3 270.81 339.3 262.55 335.54 262.55 335.54 281.16 339.3 281.16 339.3 275.53 342.34 272.42 347.46 281.16 352.32 281.16 344.93 269.8 351.94 262.55"/>
        <polygon class="cls-1" points="358.02 272.96 367.37 272.96 367.37 269.82 358.02 269.82 358.02 265.7 368.06 265.7 368.06 262.55 354.26 262.55 354.26 281.16 368.42 281.16 368.42 278.02 358.02 278.02 358.02 272.96"/>
        <path class="cls-1" d="M383.94,274.51c-.53-.57-1.2-1.09-2.01-1.56,1.63-.24,2.86-.81,3.68-1.72.82-.91,1.23-2.06,1.23-3.46,0-1.1-.27-2.08-.81-2.93s-1.26-1.45-2.17-1.78c-.9-.33-2.35-.5-4.33-.5h-7.91v18.61h3.76v-7.77h.76c.86,0,1.49.07,1.89.21.4.14.77.4,1.13.78.36.38,1.02,1.29,1.98,2.74l2.72,4.05h4.49l-2.27-3.63c-.9-1.45-1.61-2.45-2.14-3.02ZM378.16,270.42h-2.78v-4.72h2.93c1.52,0,2.44.02,2.74.06.61.1,1.08.34,1.42.73.33.39.5.89.5,1.52,0,.56-.13,1.02-.38,1.4s-.61.63-1.05.79-1.57.23-3.38.23Z"/>
        <path class="cls-1" d="M395.74,262.55l-7.25,18.61h3.99l1.54-4.23h7.44l1.62,4.23h4.09l-7.45-18.61h-3.97ZM395.17,273.8l2.51-6.91,2.56,6.91h-5.08Z"/>
        <path class="cls-1" d="M417.82,274.32h4.3v2.36c-.57.44-1.25.81-2.04,1.12-.79.31-1.58.46-2.37.46-1.59,0-2.88-.55-3.86-1.66-.98-1.11-1.47-2.76-1.47-4.97,0-2.05.48-3.59,1.45-4.63.97-1.04,2.27-1.56,3.92-1.56,1.08,0,1.99.26,2.71.79.72.53,1.22,1.25,1.48,2.17l3.73-.7c-.37-1.71-1.21-3.05-2.51-4.02-1.3-.97-3.1-1.45-5.41-1.45-1.78,0-3.26.31-4.46.93-1.57.8-2.75,1.96-3.57,3.47s-1.22,3.23-1.22,5.17c0,1.79.36,3.44,1.09,4.96.73,1.52,1.82,2.69,3.26,3.5,1.45.82,3.14,1.23,5.09,1.23,1.53,0,3.04-.29,4.54-.87,1.49-.58,2.63-1.25,3.42-2.01v-7.41h-8.1v3.14Z"/>
        <polygon class="cls-1" points="433.14 278.02 433.14 272.96 442.48 272.96 442.48 269.82 433.14 269.82 433.14 265.7 443.18 265.7 443.18 262.55 429.38 262.55 429.38 281.16 443.54 281.16 443.54 278.02 433.14 278.02"/>
      </g>
      <path class="cls-1" d="M.78,266.08h42.8v15.73h-27.07c-8.68,0-15.73-7.05-15.73-15.73h0Z"/>
      <path class="cls-1" d="M464.23,266.08h27.07v15.73h-42.8c0-8.68,7.05-15.73,15.73-15.73Z" transform="translate(939.79 547.89) rotate(-180)"/>
    </g>
  </g>
</svg>