<?xml version="1.0" encoding="UTF-8"?>
<svg id="Layer_2" data-name="Layer 2" xmlns="http://www.w3.org/2000/svg" viewBox="0 0 162 162">
  <defs>
    <style>
      .cls-1 {
        fill: #fff;
      }
    </style>
  </defs>
  <g id="Layer_1-2" data-name="Layer 1">
    <path class="cls-1" d="M81,0C36.26,0,0,36.26,0,81s36.26,81,81,81,81-36.26,81-81S125.74,0,81,0ZM43.91,134.99h-13.08v-31.81l13.08-.38v32.19ZM65.67,134.99h-13.08v-32.62c4.58-.34,8.94-.85,13.08-1.53v34.15ZM87.43,134.99h-13.08v-35.86c4.66-1.07,9.01-2.36,13.08-3.81v39.67ZM109.18,134.99h-13.08v-43.21c4.83-2.22,9.17-4.68,13.08-7.29v50.5ZM130.94,134.99h-13.08v-57.1c4.49-3.88,10.01-7.89,13.08-11.8v68.9ZM127.93,47.67c-7.67,15.08-28.88,42.53-83.39,44.11,4.49-1.47,57.27-5.99,73.84-47.62-3.66-1.01-4.54-1.3-6.43-1.93,5.31-4.4,12.48-10.25,17.78-14.64,1.57,6.7,3.49,15.32,5.06,22.03-1.06-.24-5.68-1.55-6.86-1.95Z"/>
  </g>
</svg>